# Blender v2.80 (sub 40) OBJ File: ''
# www.blender.org
o Plane
v -1.000000 0.000000 1.000000
v 1.000000 0.000000 1.000000
v -1.000000 0.000000 -1.000000
v 1.000000 0.000000 -1.000000
v -1.000000 0.000000 0.000000
v 0.000000 0.000000 1.000000
v 1.000000 0.000000 0.000000
v 0.000000 0.000000 -1.000000
v 0.000000 0.000000 0.000000
v -1.000000 0.000000 0.500000
v 0.500000 0.000000 1.000000
v 1.000000 0.000000 -0.500000
v -0.500000 0.000000 -1.000000
v -1.000000 0.000000 -0.500000
v -0.500000 0.000000 1.000000
v 1.000000 0.000000 0.500000
v 0.500000 0.000000 -1.000000
v 0.000000 0.000000 -0.500000
v 0.000000 0.000000 0.500000
v -0.500000 0.000000 0.000000
v 0.500000 0.000000 0.000000
v 0.500000 0.000000 0.500000
v -0.500000 0.000000 0.500000
v -0.500000 0.000000 -0.500000
v 0.500000 0.000000 -0.500000
v -1.000000 0.000000 0.750000
v 0.750000 0.000000 1.000000
v 1.000000 0.000000 -0.750000
v -0.750000 0.000000 -1.000000
v -1.000000 0.000000 -0.250000
v -0.250000 0.000000 1.000000
v 1.000000 0.000000 0.250000
v 0.250000 0.000000 -1.000000
v 0.000000 0.000000 -0.750000
v 0.000000 0.000000 0.250000
v -0.750000 0.000000 0.000000
v 0.250000 0.000000 0.000000
v -1.000000 0.000000 0.250000
v 0.250000 0.000000 1.000000
v 1.000000 0.000000 -0.250000
v -0.250000 0.000000 -1.000000
v -1.000000 0.000000 -0.750000
v -0.750000 0.000000 1.000000
v 1.000000 0.000000 0.750000
v 0.750000 0.000000 -1.000000
v 0.000000 0.000000 -0.250000
v 0.000000 0.000000 0.750000
v -0.250000 0.000000 0.000000
v 0.750000 0.000000 0.000000
v 0.500000 0.000000 0.250000
v 0.500000 0.000000 0.750000
v 0.250000 0.000000 0.500000
v 0.750000 0.000000 0.500000
v -0.500000 0.000000 0.250000
v -0.500000 0.000000 0.750000
v -0.750000 0.000000 0.500000
v -0.250000 0.000000 0.500000
v -0.500000 0.000000 -0.750000
v -0.500000 0.000000 -0.250000
v -0.750000 0.000000 -0.500000
v -0.250000 0.000000 -0.500000
v 0.500000 0.000000 -0.750000
v 0.500000 0.000000 -0.250000
v 0.250000 0.000000 -0.500000
v 0.750000 0.000000 -0.500000
v 0.750000 0.000000 -0.250000
v 0.250000 0.000000 -0.250000
v 0.250000 0.000000 -0.750000
v -0.250000 0.000000 -0.250000
v -0.750000 0.000000 -0.250000
v -0.750000 0.000000 -0.750000
v -0.250000 0.000000 0.750000
v -0.750000 0.000000 0.750000
v -0.750000 0.558583 -1.000000
v 0.750000 0.000000 0.750000
v 0.250000 0.000000 0.750000
v 0.250000 0.000000 0.250000
v 0.750000 0.000000 0.250000
v -0.250000 0.000000 0.250000
v -0.250000 0.000000 -0.750000
v 0.750000 0.000000 -0.750000
v -0.500000 0.363267 -0.500000
v -0.500000 0.363267 -0.750000
v -0.750000 0.363267 -0.500000
v -0.750000 0.363267 -0.750000
v 0.000000 0.336596 0.000000
v 0.000000 0.336596 -0.250000
v -0.250000 0.336596 0.000000
v -0.250000 0.336596 -0.250000
v 0.500000 0.576787 0.500000
v 0.500000 0.576787 0.250000
v 0.250000 0.576787 0.500000
v 0.250000 0.576787 0.250000
v -0.250000 0.261222 0.500000
v -0.500000 0.261222 0.500000
v -0.500000 0.261222 0.250000
v -0.250000 0.261222 0.250000
v -1.000000 0.295874 -0.250000
v -1.000000 0.295874 0.000000
v -0.750000 0.295874 0.000000
v -0.750000 0.295874 -0.250000
v -1.000000 0.315639 0.750000
v -1.000000 0.315639 1.000000
v -0.750000 0.315639 1.000000
v -0.750000 0.315639 0.750000
v 1.000000 0.216317 -0.750000
v 1.000000 0.216317 -1.000000
v 0.750000 0.216317 -1.000000
v 0.750000 0.216317 -0.750000
v 1.000000 0.197573 0.250000
v 1.000000 0.197573 0.000000
v 1.000000 0.197573 0.750000
v 1.000000 0.197573 0.500000
v 0.750000 0.197573 0.000000
v 0.750000 0.197573 0.500000
v 0.750000 0.197573 0.750000
v 0.750000 0.197573 0.250000
v 0.000000 0.476456 0.750000
v 0.000000 0.476456 0.500000
v 0.500000 0.476456 -0.250000
v 0.500000 0.476456 -0.500000
v 0.000000 0.476456 -0.500000
v 0.000000 0.476456 -0.750000
v -0.250000 0.476456 0.500000
v -0.250000 0.476456 -0.500000
v 0.250000 0.476456 -0.500000
v 0.250000 0.476456 -0.250000
v -0.250000 0.476456 0.750000
v -0.250000 0.476456 -0.750000
v -0.750000 0.224717 0.000000
v -1.000000 0.224717 0.000000
v -1.000000 0.224717 0.250000
v -1.000000 0.224717 0.500000
v -0.500000 0.224717 0.250000
v -0.500000 0.224717 0.000000
v -0.750000 0.224717 0.500000
v -0.500000 0.224717 0.500000
v -0.750000 0.224717 0.250000
v -1.000000 0.558583 -1.000000
v -1.000000 0.558583 -0.750000
v -0.750000 0.558583 -0.750000
v 0.000000 0.143375 0.750000
v 0.000000 0.143375 0.500000
v 0.250000 0.143375 0.500000
v 0.250000 0.143375 0.750000
v 0.750000 0.102171 -0.500000
v 0.500000 0.102171 -0.500000
v 0.500000 0.102171 -0.750000
v 0.750000 0.102171 -0.750000
v 0.500000 0.375823 0.000000
v 0.250000 0.375823 0.000000
v 0.500000 0.375823 -0.250000
v 0.250000 0.375823 -0.250000
vt 0.000000 0.000000
vt 1.000000 0.000000
vt 1.000000 1.000000
vt 0.000000 1.000000
vt 0.000000 0.000000
vt 1.000000 0.000000
vt 1.000000 1.000000
vt 0.000000 1.000000
vt 0.000000 0.000000
vt 1.000000 0.000000
vt 1.000000 1.000000
vt 0.000000 1.000000
vt 0.000000 0.000000
vt 1.000000 0.000000
vt 1.000000 1.000000
vt 0.000000 1.000000
vt 0.000000 0.000000
vt 1.000000 0.000000
vt 1.000000 1.000000
vt 0.000000 1.000000
vt 0.000000 0.000000
vt 1.000000 0.000000
vt 1.000000 1.000000
vt 0.000000 1.000000
vt 0.000000 0.000000
vt 1.000000 0.000000
vt 1.000000 1.000000
vt 0.000000 1.000000
vt 0.000000 0.000000
vt 1.000000 0.000000
vt 1.000000 1.000000
vt 0.000000 1.000000
vt 0.000000 0.000000
vt 1.000000 0.000000
vt 1.000000 1.000000
vt 0.000000 1.000000
vt 0.000000 0.000000
vt 1.000000 0.000000
vt 1.000000 1.000000
vt 0.000000 1.000000
vt 0.000000 0.000000
vt 1.000000 0.000000
vt 1.000000 1.000000
vt 0.000000 1.000000
vt 0.000000 0.000000
vt 1.000000 0.000000
vt 1.000000 1.000000
vt 0.000000 1.000000
vt 0.000000 0.000000
vt 1.000000 0.000000
vt 1.000000 1.000000
vt 0.000000 1.000000
vt 0.000000 0.000000
vt 1.000000 0.000000
vt 1.000000 1.000000
vt 0.000000 1.000000
vt 0.000000 0.000000
vt 1.000000 0.000000
vt 1.000000 1.000000
vt 0.000000 1.000000
vt 0.000000 0.000000
vt 1.000000 0.000000
vt 1.000000 1.000000
vt 0.000000 1.000000
vt 1.000000 0.000000
vt 1.000000 1.000000
vt 0.000000 1.000000
vt 0.000000 0.000000
vt 1.000000 1.000000
vt 0.000000 1.000000
vt 0.000000 0.000000
vt 1.000000 0.000000
vt 1.000000 1.000000
vt 0.000000 1.000000
vt 0.000000 0.000000
vt 1.000000 0.000000
vt 1.000000 1.000000
vt 0.000000 1.000000
vt 0.000000 0.000000
vt 1.000000 0.000000
vt 1.000000 1.000000
vt 0.000000 1.000000
vt 1.000000 1.000000
vt 0.000000 1.000000
vt 0.000000 0.000000
vt 1.000000 0.000000
vt 1.000000 1.000000
vt 0.000000 1.000000
vt 0.000000 0.000000
vt 1.000000 0.000000
vt 1.000000 1.000000
vt 0.000000 1.000000
vt 0.000000 0.000000
vt 1.000000 1.000000
vt 0.000000 1.000000
vt 0.000000 0.000000
vt 1.000000 0.000000
vt 1.000000 1.000000
vt 0.000000 1.000000
vt 0.000000 0.000000
vt 1.000000 0.000000
vt 1.000000 1.000000
vt 0.000000 1.000000
vt 1.000000 1.000000
vt 0.000000 1.000000
vt 0.000000 0.000000
vt 1.000000 0.000000
vt 1.000000 1.000000
vt 0.000000 1.000000
vt 0.000000 0.000000
vt 1.000000 0.000000
vt 1.000000 1.000000
vt 0.000000 1.000000
vt 0.000000 0.000000
vt 1.000000 0.000000
vt 1.000000 1.000000
vt 0.000000 1.000000
vt 0.000000 0.000000
vt 1.000000 0.000000
vt 1.000000 1.000000
vt 0.000000 1.000000
vt 0.000000 0.000000
vt 1.000000 0.000000
vt 1.000000 1.000000
vt 0.000000 1.000000
vt 0.000000 0.000000
vt 1.000000 0.000000
vt 1.000000 1.000000
vt 0.000000 1.000000
vt 0.000000 0.000000
vt 1.000000 0.000000
vt 1.000000 1.000000
vt 0.000000 1.000000
vt 0.000000 0.000000
vt 1.000000 0.000000
vt 1.000000 1.000000
vt 0.000000 1.000000
vt 0.000000 0.000000
vt 1.000000 0.000000
vt 1.000000 1.000000
vt 0.000000 1.000000
vt 0.000000 0.000000
vt 1.000000 0.000000
vt 1.000000 1.000000
vt 0.000000 1.000000
vt 0.000000 0.000000
vt 1.000000 1.000000
vt 0.000000 1.000000
vt 1.000000 0.000000
vt 1.000000 1.000000
vt 0.000000 1.000000
vt 1.000000 0.000000
vt 1.000000 1.000000
vt 0.000000 1.000000
vt 1.000000 0.000000
vt 1.000000 1.000000
vt 0.000000 1.000000
vt 0.000000 0.000000
vt 1.000000 0.000000
vt 1.000000 1.000000
vt 0.000000 1.000000
vt 0.000000 0.000000
vt 1.000000 1.000000
vt 0.000000 1.000000
vt 0.000000 0.000000
vt 1.000000 0.000000
vt 1.000000 1.000000
vt 0.000000 1.000000
vt 0.000000 0.000000
vt 1.000000 0.000000
vt 1.000000 1.000000
vt 0.000000 1.000000
vt 0.000000 0.000000
vt 1.000000 0.000000
vt 1.000000 1.000000
vt 0.000000 1.000000
vt 0.000000 0.000000
vt 1.000000 0.000000
vt 1.000000 1.000000
vt 0.000000 1.000000
vt 0.000000 0.000000
vt 1.000000 0.000000
vt 1.000000 1.000000
vt 0.000000 1.000000
vt 0.000000 0.000000
vt 1.000000 0.000000
vt 1.000000 1.000000
vt 0.000000 1.000000
vt 1.000000 0.000000
vt 1.000000 1.000000
vt 0.000000 1.000000
vt 0.000000 0.000000
vt 1.000000 1.000000
vt 0.000000 1.000000
vt 1.000000 0.000000
vt 1.000000 1.000000
vt 0.000000 1.000000
vt 0.000000 0.000000
vt 1.000000 0.000000
vt 1.000000 1.000000
vt 0.000000 1.000000
vt 0.000000 0.000000
vt 1.000000 1.000000
vt 0.000000 1.000000
vt 0.000000 0.000000
vt 1.000000 0.000000
vt 1.000000 1.000000
vt 0.000000 1.000000
vt 0.000000 0.000000
vt 1.000000 1.000000
vt 0.000000 1.000000
vt 1.000000 0.000000
vt 1.000000 1.000000
vt 0.000000 1.000000
vt 0.000000 0.000000
vt 1.000000 0.000000
vt 1.000000 1.000000
vt 0.000000 1.000000
vt 0.000000 0.000000
vt 1.000000 0.000000
vt 1.000000 1.000000
vt 0.000000 1.000000
vt 1.000000 1.000000
vt 0.000000 1.000000
vt 0.000000 0.000000
vt 1.000000 1.000000
vt 0.000000 1.000000
vt 1.000000 1.000000
vt 0.000000 1.000000
vt 0.000000 0.000000
vt 1.000000 0.000000
vt 1.000000 1.000000
vt 0.000000 1.000000
vt 0.000000 0.000000
vt 1.000000 0.000000
vt 1.000000 1.000000
vt 0.000000 1.000000
vt 0.000000 1.000000
vt 1.000000 0.000000
vt 1.000000 1.000000
vt 0.000000 1.000000
vt 1.000000 1.000000
vt 0.000000 0.000000
vt 1.000000 0.000000
vt 0.000000 1.000000
vt 1.000000 1.000000
vt 0.000000 0.000000
vt 1.000000 0.000000
vt 1.000000 1.000000
vt 0.000000 1.000000
vt 1.000000 1.000000
vt 0.000000 1.000000
vt 0.000000 0.000000
vt 1.000000 0.000000
vt 1.000000 1.000000
vt 0.000000 1.000000
vt 1.000000 1.000000
vt 0.000000 0.000000
vt 1.000000 0.000000
vt 1.000000 1.000000
vt 0.000000 1.000000
vt 0.000000 1.000000
vt 0.000000 0.000000
vt 1.000000 0.000000
vt 0.000000 1.000000
vt 1.000000 0.000000
vt 1.000000 1.000000
vt 1.000000 0.000000
vt 1.000000 1.000000
vt 0.000000 1.000000
vt 0.000000 0.000000
vt 1.000000 1.000000
vt 0.000000 1.000000
vt 0.000000 0.000000
vt 1.000000 0.000000
vt 1.000000 1.000000
vt 0.000000 1.000000
vt 1.000000 0.000000
vt 1.000000 1.000000
vt 0.000000 1.000000
vt 1.000000 1.000000
vt 0.000000 1.000000
vt 0.000000 0.000000
vt 1.000000 0.000000
vt 0.000000 1.000000
vt 0.000000 0.000000
vt 1.000000 0.000000
vt 1.000000 1.000000
vt 0.000000 1.000000
vt 1.000000 0.000000
vt 1.000000 1.000000
vt 1.000000 0.000000
vt 1.000000 1.000000
vt 0.000000 1.000000
vt 0.000000 0.000000
vt 1.000000 0.000000
vt 1.000000 1.000000
vt 0.000000 0.000000
vt 1.000000 0.000000
vt 1.000000 1.000000
vt 0.000000 1.000000
vt 0.000000 0.000000
vt 1.000000 0.000000
vt 0.000000 1.000000
vt 0.000000 0.000000
vt 1.000000 0.000000
vt 1.000000 1.000000
vt 0.000000 1.000000
vt 0.000000 0.000000
vt 1.000000 0.000000
vt 1.000000 1.000000
vt 0.000000 1.000000
vt 0.000000 0.000000
vt 1.000000 0.000000
vt 1.000000 1.000000
vt 0.000000 0.000000
vt 1.000000 0.000000
vt 1.000000 1.000000
vt 0.000000 0.000000
vt 0.000000 1.000000
vt 0.000000 0.000000
vt 1.000000 0.000000
vt 0.000000 1.000000
vt 0.000000 0.000000
vt 1.000000 0.000000
vt 1.000000 1.000000
vt 0.000000 1.000000
vt 1.000000 1.000000
vt 0.000000 0.000000
vt 1.000000 0.000000
vt 0.000000 1.000000
vt 0.000000 0.000000
vt 1.000000 0.000000
vt 1.000000 1.000000
vt 0.000000 1.000000
vt 0.000000 0.000000
vt 1.000000 0.000000
vt 0.000000 1.000000
vt 0.000000 0.000000
vt 1.000000 0.000000
vt 1.000000 1.000000
vt 0.000000 1.000000
vt 0.000000 0.000000
vt 1.000000 1.000000
vt 0.000000 1.000000
vt 0.000000 0.000000
vt 1.000000 0.000000
vt 1.000000 1.000000
vt 0.000000 1.000000
vt 0.000000 1.000000
vt 0.000000 1.000000
vt 1.000000 1.000000
vt 0.000000 0.000000
vt 1.000000 0.000000
vt 1.000000 1.000000
vt 0.000000 1.000000
vt 0.000000 0.000000
vt 1.000000 0.000000
vt 1.000000 1.000000
vt 0.000000 1.000000
vt 1.000000 1.000000
vt 1.000000 1.000000
vt 0.000000 0.000000
vt 1.000000 0.000000
vt 1.000000 1.000000
vt 0.000000 0.000000
vt 1.000000 0.000000
vt 1.000000 1.000000
vt 0.000000 0.000000
vt 1.000000 0.000000
vt 1.000000 1.000000
vt 0.000000 0.000000
vt 1.000000 0.000000
vt 1.000000 1.000000
vt 0.000000 1.000000
vt 0.000000 1.000000
vt 0.000000 1.000000
vt 0.000000 0.000000
vt 1.000000 1.000000
vt 0.000000 1.000000
vt 0.000000 1.000000
vt 0.000000 0.000000
vt 1.000000 0.000000
vt 1.000000 1.000000
vt 0.000000 1.000000
vt 0.000000 0.000000
vt 1.000000 1.000000
vt 0.000000 1.000000
vt 0.000000 0.000000
vt 1.000000 0.000000
vt 1.000000 1.000000
vt 1.000000 0.000000
vt 0.000000 1.000000
vt 0.000000 0.000000
vt 1.000000 0.000000
vt 1.000000 1.000000
vt 0.000000 1.000000
vt 1.000000 1.000000
vt 0.000000 1.000000
vt 1.000000 1.000000
vt 0.000000 1.000000
vt 0.000000 0.000000
vt 1.000000 0.000000
vt 1.000000 1.000000
vt 1.000000 1.000000
vt 0.000000 1.000000
vt 1.000000 0.000000
vt 1.000000 1.000000
vt 0.000000 1.000000
vt 0.000000 1.000000
vt 0.000000 0.000000
vt 1.000000 0.000000
vt 1.000000 1.000000
vt 0.000000 1.000000
vt 1.000000 1.000000
vt 0.000000 1.000000
vt 0.000000 0.000000
vt 1.000000 0.000000
vt 1.000000 1.000000
vt 0.000000 1.000000
vn -1.0000 0.0000 0.0000
vn 0.0000 1.0000 0.0000
vn 0.0000 0.0000 -1.0000
vn 0.0000 0.0000 1.0000
vn 1.0000 0.0000 0.0000
s off
f 45/1/1 81/2/1 109/3/1 108/4/1
f 80/5/2 34/6/2 8/7/2 41/8/2
f 79/9/2 35/10/2 9/11/2 48/12/2
f 53/13/1 75/14/1 116/15/1 115/16/1
f 77/17/2 50/18/2 21/19/2 37/20/2
f 76/21/2 51/22/2 22/23/2 52/24/2
f 7/25/3 49/26/3 114/27/3 111/28/3
f 10/29/4 56/30/4 136/31/4 133/32/4
f 73/33/2 55/34/2 23/35/2 56/36/2
f 19/37/3 57/38/3 124/39/3 119/40/3
f 71/41/2 58/42/2 13/43/2 29/44/2
f 70/45/2 59/46/2 24/47/2 60/48/2
f 69/49/2 46/50/2 18/51/2 61/52/2
f 68/53/2 62/54/2 17/55/2 33/56/2
f 63/57/5 25/58/5 121/59/5 120/60/5
f 66/61/2 40/62/2 12/63/2 65/64/2
f 63/57/2 66/65/2 65/66/2 25/67/2
f 21/68/2 49/26/2 66/69/2 63/70/2
f 49/71/2 7/72/2 40/73/2 66/74/2
f 46/75/2 67/76/2 64/77/2 18/78/2
f 9/79/2 37/80/2 67/81/2 46/82/2
f 63/57/3 67/76/3 153/83/3 152/84/3
f 34/85/2 68/86/2 33/87/2 8/88/2
f 18/89/2 64/90/2 68/91/2 34/92/2
f 64/93/2 25/58/2 62/94/2 68/95/2
f 59/96/2 69/97/2 61/98/2 24/99/2
f 20/100/2 48/101/2 69/102/2 59/103/2
f 9/79/5 46/50/5 87/104/5 86/105/5
f 30/106/2 70/107/2 60/108/2 14/109/2
f 5/110/4 36/111/4 100/112/4 99/113/4
f 36/114/2 20/115/2 59/116/2 70/117/2
f 29/118/3 3/119/3 139/120/3 74/121/3
f 14/122/2 60/123/2 71/124/2 42/125/2
f 60/126/4 24/127/4 82/128/4 84/129/4
f 55/130/2 72/131/2 57/132/2 23/133/2
f 15/134/2 31/135/2 72/136/2 55/137/2
f 31/138/2 6/139/2 47/140/2 72/141/2
f 26/142/2 73/143/2 56/144/2 10/145/2
f 43/146/5 73/143/5 105/147/5 104/148/5
f 43/146/2 15/149/2 55/150/2 73/151/2
f 5/110/1 38/152/1 132/153/1 131/154/1
f 36/114/3 5/155/3 131/156/3 130/157/3
f 38/158/1 10/159/1 133/160/1 132/161/1
f 51/162/2 75/14/2 53/163/2 22/164/2
f 11/165/2 27/166/2 75/167/2 51/168/2
f 27/169/2 2/170/2 44/171/2 75/172/2
f 47/173/4 76/174/4 145/175/4 142/176/4
f 6/177/2 39/178/2 76/179/2 47/180/2
f 39/181/2 11/182/2 51/183/2 76/184/2
f 35/185/2 77/186/2 37/187/2 9/188/2
f 19/37/2 52/189/2 77/190/2 35/191/2
f 50/192/3 77/186/3 93/193/3 91/194/3
f 50/192/2 78/195/2 49/196/2 21/197/2
f 22/198/2 53/199/2 78/200/2 50/201/2
f 78/202/1 53/199/1 115/203/1 117/204/1
f 54/205/2 79/206/2 48/207/2 20/208/2
f 57/209/5 79/206/5 97/210/5 94/211/5
f 57/209/2 19/212/2 35/213/2 79/214/2
f 58/215/2 80/216/2 41/217/2 13/218/2
f 24/219/2 61/220/2 80/221/2 58/222/2
f 34/85/3 80/216/3 129/223/3 123/224/3
f 62/225/2 81/2/2 45/226/2 17/227/2
f 62/225/1 25/58/1 147/228/1 148/229/1
f 65/230/2 12/231/2 28/232/2 81/233/2
f 84/234/2 82/235/2 83/236/2 85/237/2
f 24/219/5 58/42/5 83/236/5 82/238/5
f 58/215/3 71/239/3 85/240/3 83/241/3
f 71/41/1 60/123/1 84/242/1 85/237/1
f 88/243/2 86/244/2 87/104/2 89/245/2
f 69/49/1 48/101/1 88/246/1 89/245/1
f 48/247/4 9/248/4 86/249/4 88/250/4
f 46/75/3 69/97/3 89/251/3 87/252/3
f 92/253/2 90/254/2 91/255/2 93/256/2
f 77/17/1 52/189/1 92/257/1 93/256/1
f 52/258/4 22/259/4 90/260/4 92/261/4
f 22/198/5 50/18/5 91/255/5 90/262/5
f 95/263/2 94/264/2 97/210/2 96/265/2
f 54/205/1 23/266/1 95/267/1 96/265/1
f 79/9/3 54/268/3 96/269/3 97/270/3
f 23/271/4 57/38/4 94/272/4 95/273/4
f 99/274/2 100/275/2 101/276/2 98/277/2
f 70/45/3 30/278/3 98/279/3 101/280/3
f 30/106/1 5/155/1 99/281/1 98/277/1
f 36/114/5 70/107/5 101/276/5 100/282/5
f 103/283/2 104/284/2 105/147/2 102/285/2
f 1/286/4 43/287/4 104/288/4 103/289/4
f 26/142/1 1/290/1 103/291/1 102/285/1
f 73/33/3 26/292/3 102/293/3 105/294/3
f 109/295/2 106/296/2 107/297/2 108/4/2
f 4/298/3 45/299/3 108/300/3 107/301/3
f 28/302/5 4/303/5 107/297/5 106/304/5
f 81/305/4 28/306/4 106/307/4 109/308/4
f 117/309/2 110/310/2 111/311/2 114/312/2
f 116/313/2 112/314/2 113/315/2 115/16/2
f 115/316/2 113/317/2 110/318/2 117/204/2
f 32/319/5 7/72/5 111/311/5 110/320/5
f 16/321/5 32/322/5 110/318/5 113/323/5
f 75/324/4 44/325/4 112/326/4 116/327/4
f 49/71/1 78/195/1 117/328/1 114/312/1
f 44/329/5 16/330/5 113/315/5 112/331/5
f 128/332/2 118/333/2 119/334/2 124/335/2
f 127/336/2 120/337/2 121/59/2 126/338/2
f 125/339/2 122/340/2 123/341/2 129/342/2
f 25/343/3 64/90/3 126/344/3 121/345/3
f 61/346/4 18/347/4 122/348/4 125/349/4
f 18/89/5 34/6/5 123/341/5 122/350/5
f 47/173/5 19/212/5 119/334/5 118/351/5
f 80/5/1 61/220/1 125/352/1 129/342/1
f 72/353/4 47/354/4 118/355/4 128/356/4
f 67/357/4 63/358/4 120/359/4 127/360/4
f 57/209/1 72/131/1 128/361/1 124/335/1
f 64/93/1 67/76/1 127/362/1 126/338/1
f 138/363/2 134/364/2 135/365/2 130/157/2
f 132/366/2 138/367/2 130/368/2 131/154/2
f 133/369/2 136/370/2 138/371/2 132/161/2
f 136/372/2 137/373/2 134/374/2 138/375/2
f 20/100/3 36/111/3 130/368/3 135/376/3
f 54/205/5 20/115/5 135/365/5 134/377/5
f 56/378/4 23/266/4 137/379/4 136/380/4
f 23/271/5 54/268/5 134/374/5 137/381/5
f 140/382/2 141/383/2 74/384/2 139/385/2
f 42/386/4 71/239/4 141/387/4 140/388/4
f 3/389/1 42/390/1 140/391/1 139/385/1
f 71/41/5 29/392/5 74/384/5 141/393/5
f 142/394/2 145/395/2 144/396/2 143/397/2
f 19/37/1 47/354/1 142/398/1 143/397/1
f 76/21/5 52/189/5 144/396/5 145/399/5
f 52/258/3 19/212/3 143/400/3 144/401/3
f 147/402/2 146/403/2 149/404/2 148/229/2
f 81/305/3 62/54/3 148/405/3 149/406/3
f 25/343/4 65/407/4 146/408/4 147/409/4
f 65/230/5 81/2/5 149/404/5 146/410/5
f 151/411/2 150/412/2 152/413/2 153/414/2
f 67/357/1 37/80/1 151/415/1 153/414/1
f 21/68/5 63/358/5 152/413/5 150/416/5
f 37/417/4 21/418/4 150/419/4 151/420/4
